# xmcd
# 
# Track frame offsets:
#   150
#   14117
#   29037
#   40731
#   58167
#   76773
#   96220
#   112439
#   129188
#   144587
#   158606
#   175731
#   191260
#   207613
#   224910
# 
# Disc length: 3245 seconds
# 
# Revision: 0
# Processed by: cddbd v1.5.2PL0 Copyright (c) Steve Scherf et al.
# Submitted via: VOLTOCDX V1.0.24 
# 
DISCID=e00cab0f
DTITLE=Various Artist - All Star Karaoke Series - Gal Country - Vol. 2 Disc 2
DYEAR=2003
DGENRE=Karaoke
TTITLE0=I'll Think Of A Reason Later - Lee Ann Womack
TTITLE1=Men - Forester Sisters
TTITLE2=My Baby Loves Me - Martina McBride
TTITLE3=Ready To Run - Dixie Chicks
TTITLE4=Shiver - Jamie O' Neal
TTITLE5=That's How Love Moves - Faith Hill
TTITLE6=There You Are - Martina McBride
TTITLE7=There You'll Be - Faith Hill
TTITLE8=What I Really Meant To Say - Cyndi Thompson
TTITLE9=When I Think About Angles - Jamie O' Neal
TTITLE10=Who I Am - Jessica Andrews
TTITLE11=Why Not Me - Judds, The
TTITLE12=Why They Call It Falling - Lee Ann Womack
TTITLE13=Wide Open Spaces - Dixie Chicks
TTITLE14=You Don't Even Know Who I Am - Patty Loveless
EXTD=
EXTT0=
EXTT1=
EXTT2=
EXTT3=
EXTT4=
EXTT5=
EXTT6=
EXTT7=
EXTT8=
EXTT9=
EXTT10=
EXTT11=
EXTT12=
EXTT13=
EXTT14=
PLAYORDER=
